<svg xmlns="http://www.w3.org/2000/svg" xmlns:xlink="http://www.w3.org/1999/xlink" class="httpgd" width="1130.00" height="825.00" viewBox="0 0 904.00 660.00">
<defs>
  <style type='text/css'><![CDATA[
    .httpgd line, .httpgd polyline, .httpgd polygon, .httpgd path, .httpgd rect, .httpgd circle {
      fill: none;
      stroke: #000000;
      stroke-linecap: round;
      stroke-linejoin: round;
      stroke-miterlimit: 10.00;
    }
  ]]></style>
<clipPath id="c0"><rect x="0.00" y="0.00" width="904.00" height="660.00"/></clipPath>
<clipPath id="c1"><rect x="59.04" y="59.04" width="814.72" height="527.52"/></clipPath>
<clipPath id="c2"><rect x="0.00" y="0.00" width="904.00" height="660.00"/></clipPath>
<clipPath id="c3"><rect x="59.04" y="59.04" width="814.72" height="527.52"/></clipPath>
</defs>
<rect width="100%" height="100%" style="stroke: none;fill: #FFFFFF;"/>
<g clip-path="url(#c0)">
</g><g clip-path="url(#c1)">
<circle cx="89.21" cy="557.52" r="2.70" style="stroke-width: 0.75;"/>
<circle cx="89.21" cy="558.30" r="2.70" style="stroke-width: 0.75;"/>
<circle cx="89.21" cy="557.96" r="2.70" style="stroke-width: 0.75;"/>
<circle cx="89.21" cy="557.27" r="2.70" style="stroke-width: 0.75;"/>
<circle cx="89.21" cy="417.44" r="2.70" style="stroke-width: 0.75;"/>
<circle cx="89.21" cy="558.00" r="2.70" style="stroke-width: 0.75;"/>
<circle cx="89.21" cy="558.17" r="2.70" style="stroke-width: 0.75;"/>
<circle cx="89.21" cy="417.70" r="2.70" style="stroke-width: 0.75;"/>
<circle cx="89.21" cy="557.94" r="2.70" style="stroke-width: 0.75;"/>
<circle cx="89.21" cy="558.04" r="2.70" style="stroke-width: 0.75;"/>
<circle cx="89.21" cy="557.84" r="2.70" style="stroke-width: 0.75;"/>
<circle cx="89.21" cy="558.07" r="2.70" style="stroke-width: 0.75;"/>
<circle cx="89.21" cy="557.19" r="2.70" style="stroke-width: 0.75;"/>
<circle cx="89.21" cy="557.46" r="2.70" style="stroke-width: 0.75;"/>
<circle cx="89.21" cy="557.71" r="2.70" style="stroke-width: 0.75;"/>
<circle cx="89.21" cy="557.73" r="2.70" style="stroke-width: 0.75;"/>
<circle cx="89.21" cy="558.08" r="2.70" style="stroke-width: 0.75;"/>
<circle cx="89.21" cy="557.68" r="2.70" style="stroke-width: 0.75;"/>
<circle cx="89.21" cy="418.48" r="2.70" style="stroke-width: 0.75;"/>
<circle cx="89.21" cy="558.21" r="2.70" style="stroke-width: 0.75;"/>
<circle cx="89.21" cy="557.41" r="2.70" style="stroke-width: 0.75;"/>
<circle cx="89.21" cy="418.97" r="2.70" style="stroke-width: 0.75;"/>
<circle cx="89.21" cy="558.01" r="2.70" style="stroke-width: 0.75;"/>
<circle cx="89.21" cy="558.10" r="2.70" style="stroke-width: 0.75;"/>
<circle cx="89.21" cy="558.20" r="2.70" style="stroke-width: 0.75;"/>
<circle cx="89.21" cy="557.76" r="2.70" style="stroke-width: 0.75;"/>
<circle cx="89.21" cy="558.36" r="2.70" style="stroke-width: 0.75;"/>
<circle cx="89.21" cy="557.99" r="2.70" style="stroke-width: 0.75;"/>
<circle cx="89.21" cy="558.09" r="2.70" style="stroke-width: 0.75;"/>
<circle cx="89.21" cy="558.32" r="2.70" style="stroke-width: 0.75;"/>
<circle cx="173.03" cy="558.15" r="2.70" style="stroke-width: 0.75;"/>
<circle cx="173.03" cy="559.26" r="2.70" style="stroke-width: 0.75;"/>
<circle cx="173.03" cy="559.75" r="2.70" style="stroke-width: 0.75;"/>
<circle cx="173.03" cy="554.92" r="2.70" style="stroke-width: 0.75;"/>
<circle cx="173.03" cy="556.29" r="2.70" style="stroke-width: 0.75;"/>
<circle cx="173.03" cy="558.21" r="2.70" style="stroke-width: 0.75;"/>
<circle cx="173.03" cy="557.45" r="2.70" style="stroke-width: 0.75;"/>
<circle cx="173.03" cy="560.20" r="2.70" style="stroke-width: 0.75;"/>
<circle cx="173.03" cy="558.55" r="2.70" style="stroke-width: 0.75;"/>
<circle cx="173.03" cy="554.54" r="2.70" style="stroke-width: 0.75;"/>
<circle cx="173.03" cy="557.98" r="2.70" style="stroke-width: 0.75;"/>
<circle cx="173.03" cy="557.43" r="2.70" style="stroke-width: 0.75;"/>
<circle cx="173.03" cy="551.71" r="2.70" style="stroke-width: 0.75;"/>
<circle cx="173.03" cy="560.10" r="2.70" style="stroke-width: 0.75;"/>
<circle cx="173.03" cy="554.98" r="2.70" style="stroke-width: 0.75;"/>
<circle cx="173.03" cy="552.43" r="2.70" style="stroke-width: 0.75;"/>
<circle cx="173.03" cy="561.20" r="2.70" style="stroke-width: 0.75;"/>
<circle cx="173.03" cy="557.88" r="2.70" style="stroke-width: 0.75;"/>
<circle cx="173.03" cy="559.13" r="2.70" style="stroke-width: 0.75;"/>
<circle cx="173.03" cy="559.44" r="2.70" style="stroke-width: 0.75;"/>
<circle cx="173.03" cy="561.15" r="2.70" style="stroke-width: 0.75;"/>
<circle cx="173.03" cy="560.69" r="2.70" style="stroke-width: 0.75;"/>
<circle cx="173.03" cy="554.03" r="2.70" style="stroke-width: 0.75;"/>
<circle cx="173.03" cy="556.11" r="2.70" style="stroke-width: 0.75;"/>
<circle cx="173.03" cy="555.55" r="2.70" style="stroke-width: 0.75;"/>
<circle cx="173.03" cy="553.14" r="2.70" style="stroke-width: 0.75;"/>
<circle cx="173.03" cy="559.06" r="2.70" style="stroke-width: 0.75;"/>
<circle cx="173.03" cy="555.42" r="2.70" style="stroke-width: 0.75;"/>
<circle cx="173.03" cy="558.12" r="2.70" style="stroke-width: 0.75;"/>
<circle cx="173.03" cy="559.47" r="2.70" style="stroke-width: 0.75;"/>
<circle cx="256.85" cy="552.05" r="2.70" style="stroke-width: 0.75;"/>
<circle cx="256.85" cy="417.09" r="2.70" style="stroke-width: 0.75;"/>
<circle cx="256.85" cy="563.75" r="2.70" style="stroke-width: 0.75;"/>
<circle cx="256.85" cy="558.89" r="2.70" style="stroke-width: 0.75;"/>
<circle cx="256.85" cy="548.71" r="2.70" style="stroke-width: 0.75;"/>
<circle cx="256.85" cy="550.61" r="2.70" style="stroke-width: 0.75;"/>
<circle cx="256.85" cy="566.04" r="2.70" style="stroke-width: 0.75;"/>
<circle cx="256.85" cy="556.93" r="2.70" style="stroke-width: 0.75;"/>
<circle cx="256.85" cy="552.51" r="2.70" style="stroke-width: 0.75;"/>
<circle cx="256.85" cy="567.02" r="2.70" style="stroke-width: 0.75;"/>
<circle cx="256.85" cy="549.22" r="2.70" style="stroke-width: 0.75;"/>
<circle cx="256.85" cy="560.67" r="2.70" style="stroke-width: 0.75;"/>
<circle cx="256.85" cy="555.85" r="2.70" style="stroke-width: 0.75;"/>
<circle cx="256.85" cy="558.63" r="2.70" style="stroke-width: 0.75;"/>
<circle cx="256.85" cy="548.24" r="2.70" style="stroke-width: 0.75;"/>
<circle cx="256.85" cy="566.15" r="2.70" style="stroke-width: 0.75;"/>
<circle cx="256.85" cy="558.34" r="2.70" style="stroke-width: 0.75;"/>
<circle cx="256.85" cy="563.80" r="2.70" style="stroke-width: 0.75;"/>
<circle cx="256.85" cy="555.10" r="2.70" style="stroke-width: 0.75;"/>
<circle cx="256.85" cy="544.40" r="2.70" style="stroke-width: 0.75;"/>
<circle cx="256.85" cy="444.41" r="2.70" style="stroke-width: 0.75;"/>
<circle cx="256.85" cy="557.85" r="2.70" style="stroke-width: 0.75;"/>
<circle cx="256.85" cy="558.35" r="2.70" style="stroke-width: 0.75;"/>
<circle cx="256.85" cy="548.44" r="2.70" style="stroke-width: 0.75;"/>
<circle cx="256.85" cy="563.25" r="2.70" style="stroke-width: 0.75;"/>
<circle cx="256.85" cy="554.57" r="2.70" style="stroke-width: 0.75;"/>
<circle cx="256.85" cy="547.53" r="2.70" style="stroke-width: 0.75;"/>
<circle cx="256.85" cy="559.02" r="2.70" style="stroke-width: 0.75;"/>
<circle cx="256.85" cy="561.63" r="2.70" style="stroke-width: 0.75;"/>
<circle cx="256.85" cy="558.43" r="2.70" style="stroke-width: 0.75;"/>
<circle cx="340.67" cy="533.33" r="2.70" style="stroke-width: 0.75;"/>
<circle cx="340.67" cy="546.45" r="2.70" style="stroke-width: 0.75;"/>
<circle cx="340.67" cy="523.68" r="2.70" style="stroke-width: 0.75;"/>
<circle cx="340.67" cy="537.62" r="2.70" style="stroke-width: 0.75;"/>
<circle cx="340.67" cy="562.84" r="2.70" style="stroke-width: 0.75;"/>
<circle cx="340.67" cy="547.26" r="2.70" style="stroke-width: 0.75;"/>
<circle cx="340.67" cy="524.26" r="2.70" style="stroke-width: 0.75;"/>
<circle cx="340.67" cy="546.13" r="2.70" style="stroke-width: 0.75;"/>
<circle cx="340.67" cy="538.55" r="2.70" style="stroke-width: 0.75;"/>
<circle cx="340.67" cy="537.30" r="2.70" style="stroke-width: 0.75;"/>
<circle cx="340.67" cy="551.50" r="2.70" style="stroke-width: 0.75;"/>
<circle cx="340.67" cy="533.42" r="2.70" style="stroke-width: 0.75;"/>
<circle cx="340.67" cy="534.02" r="2.70" style="stroke-width: 0.75;"/>
<circle cx="340.67" cy="521.43" r="2.70" style="stroke-width: 0.75;"/>
<circle cx="340.67" cy="371.04" r="2.70" style="stroke-width: 0.75;"/>
<circle cx="340.67" cy="536.96" r="2.70" style="stroke-width: 0.75;"/>
<circle cx="340.67" cy="538.38" r="2.70" style="stroke-width: 0.75;"/>
<circle cx="340.67" cy="532.42" r="2.70" style="stroke-width: 0.75;"/>
<circle cx="340.67" cy="545.36" r="2.70" style="stroke-width: 0.75;"/>
<circle cx="340.67" cy="395.19" r="2.70" style="stroke-width: 0.75;"/>
<circle cx="340.67" cy="534.61" r="2.70" style="stroke-width: 0.75;"/>
<circle cx="340.67" cy="383.62" r="2.70" style="stroke-width: 0.75;"/>
<circle cx="340.67" cy="547.50" r="2.70" style="stroke-width: 0.75;"/>
<circle cx="340.67" cy="525.00" r="2.70" style="stroke-width: 0.75;"/>
<circle cx="340.67" cy="531.59" r="2.70" style="stroke-width: 0.75;"/>
<circle cx="340.67" cy="515.95" r="2.70" style="stroke-width: 0.75;"/>
<circle cx="340.67" cy="554.05" r="2.70" style="stroke-width: 0.75;"/>
<circle cx="340.67" cy="542.78" r="2.70" style="stroke-width: 0.75;"/>
<circle cx="340.67" cy="552.52" r="2.70" style="stroke-width: 0.75;"/>
<circle cx="340.67" cy="541.32" r="2.70" style="stroke-width: 0.75;"/>
<circle cx="424.49" cy="397.47" r="2.70" style="stroke-width: 0.75;"/>
<circle cx="424.49" cy="202.75" r="2.70" style="stroke-width: 0.75;"/>
<circle cx="424.49" cy="406.10" r="2.70" style="stroke-width: 0.75;"/>
<circle cx="424.49" cy="414.76" r="2.70" style="stroke-width: 0.75;"/>
<circle cx="424.49" cy="404.54" r="2.70" style="stroke-width: 0.75;"/>
<circle cx="424.49" cy="393.91" r="2.70" style="stroke-width: 0.75;"/>
<circle cx="424.49" cy="398.94" r="2.70" style="stroke-width: 0.75;"/>
<circle cx="424.49" cy="385.91" r="2.70" style="stroke-width: 0.75;"/>
<circle cx="424.49" cy="404.45" r="2.70" style="stroke-width: 0.75;"/>
<circle cx="424.49" cy="419.91" r="2.70" style="stroke-width: 0.75;"/>
<circle cx="424.49" cy="390.12" r="2.70" style="stroke-width: 0.75;"/>
<circle cx="424.49" cy="413.78" r="2.70" style="stroke-width: 0.75;"/>
<circle cx="424.49" cy="393.95" r="2.70" style="stroke-width: 0.75;"/>
<circle cx="424.49" cy="395.14" r="2.70" style="stroke-width: 0.75;"/>
<circle cx="424.49" cy="396.79" r="2.70" style="stroke-width: 0.75;"/>
<circle cx="424.49" cy="202.02" r="2.70" style="stroke-width: 0.75;"/>
<circle cx="424.49" cy="403.38" r="2.70" style="stroke-width: 0.75;"/>
<circle cx="424.49" cy="416.08" r="2.70" style="stroke-width: 0.75;"/>
<circle cx="424.49" cy="400.30" r="2.70" style="stroke-width: 0.75;"/>
<circle cx="424.49" cy="269.25" r="2.70" style="stroke-width: 0.75;"/>
<circle cx="424.49" cy="393.75" r="2.70" style="stroke-width: 0.75;"/>
<circle cx="424.49" cy="382.29" r="2.70" style="stroke-width: 0.75;"/>
<circle cx="424.49" cy="421.74" r="2.70" style="stroke-width: 0.75;"/>
<circle cx="424.49" cy="403.47" r="2.70" style="stroke-width: 0.75;"/>
<circle cx="424.49" cy="400.22" r="2.70" style="stroke-width: 0.75;"/>
<circle cx="424.49" cy="394.72" r="2.70" style="stroke-width: 0.75;"/>
<circle cx="424.49" cy="409.01" r="2.70" style="stroke-width: 0.75;"/>
<circle cx="424.49" cy="396.55" r="2.70" style="stroke-width: 0.75;"/>
<circle cx="424.49" cy="396.65" r="2.70" style="stroke-width: 0.75;"/>
<circle cx="424.49" cy="401.16" r="2.70" style="stroke-width: 0.75;"/>
<circle cx="508.31" cy="302.84" r="2.70" style="stroke-width: 0.75;"/>
<circle cx="508.31" cy="280.16" r="2.70" style="stroke-width: 0.75;"/>
<circle cx="508.31" cy="291.46" r="2.70" style="stroke-width: 0.75;"/>
<circle cx="508.31" cy="273.18" r="2.70" style="stroke-width: 0.75;"/>
<circle cx="508.31" cy="304.91" r="2.70" style="stroke-width: 0.75;"/>
<circle cx="508.31" cy="318.81" r="2.70" style="stroke-width: 0.75;"/>
<circle cx="508.31" cy="306.71" r="2.70" style="stroke-width: 0.75;"/>
<circle cx="508.31" cy="299.68" r="2.70" style="stroke-width: 0.75;"/>
<circle cx="508.31" cy="304.47" r="2.70" style="stroke-width: 0.75;"/>
<circle cx="508.31" cy="306.94" r="2.70" style="stroke-width: 0.75;"/>
<circle cx="508.31" cy="323.55" r="2.70" style="stroke-width: 0.75;"/>
<circle cx="508.31" cy="312.43" r="2.70" style="stroke-width: 0.75;"/>
<circle cx="508.31" cy="316.70" r="2.70" style="stroke-width: 0.75;"/>
<circle cx="508.31" cy="296.68" r="2.70" style="stroke-width: 0.75;"/>
<circle cx="508.31" cy="296.16" r="2.70" style="stroke-width: 0.75;"/>
<circle cx="508.31" cy="279.12" r="2.70" style="stroke-width: 0.75;"/>
<circle cx="508.31" cy="305.77" r="2.70" style="stroke-width: 0.75;"/>
<circle cx="508.31" cy="287.55" r="2.70" style="stroke-width: 0.75;"/>
<circle cx="508.31" cy="307.90" r="2.70" style="stroke-width: 0.75;"/>
<circle cx="508.31" cy="322.66" r="2.70" style="stroke-width: 0.75;"/>
<circle cx="508.31" cy="294.88" r="2.70" style="stroke-width: 0.75;"/>
<circle cx="508.31" cy="308.48" r="2.70" style="stroke-width: 0.75;"/>
<circle cx="508.31" cy="312.97" r="2.70" style="stroke-width: 0.75;"/>
<circle cx="508.31" cy="311.86" r="2.70" style="stroke-width: 0.75;"/>
<circle cx="508.31" cy="285.54" r="2.70" style="stroke-width: 0.75;"/>
<circle cx="508.31" cy="278.66" r="2.70" style="stroke-width: 0.75;"/>
<circle cx="508.31" cy="286.71" r="2.70" style="stroke-width: 0.75;"/>
<circle cx="508.31" cy="304.96" r="2.70" style="stroke-width: 0.75;"/>
<circle cx="508.31" cy="319.74" r="2.70" style="stroke-width: 0.75;"/>
<circle cx="508.31" cy="297.90" r="2.70" style="stroke-width: 0.75;"/>
<circle cx="592.13" cy="85.80" r="2.70" style="stroke-width: 0.75;"/>
<circle cx="592.13" cy="268.22" r="2.70" style="stroke-width: 0.75;"/>
<circle cx="592.13" cy="277.13" r="2.70" style="stroke-width: 0.75;"/>
<circle cx="592.13" cy="278.71" r="2.70" style="stroke-width: 0.75;"/>
<circle cx="592.13" cy="296.88" r="2.70" style="stroke-width: 0.75;"/>
<circle cx="592.13" cy="274.93" r="2.70" style="stroke-width: 0.75;"/>
<circle cx="592.13" cy="281.54" r="2.70" style="stroke-width: 0.75;"/>
<circle cx="592.13" cy="281.33" r="2.70" style="stroke-width: 0.75;"/>
<circle cx="592.13" cy="285.94" r="2.70" style="stroke-width: 0.75;"/>
<circle cx="592.13" cy="201.98" r="2.70" style="stroke-width: 0.75;"/>
<circle cx="592.13" cy="292.60" r="2.70" style="stroke-width: 0.75;"/>
<circle cx="592.13" cy="269.43" r="2.70" style="stroke-width: 0.75;"/>
<circle cx="592.13" cy="281.83" r="2.70" style="stroke-width: 0.75;"/>
<circle cx="592.13" cy="282.24" r="2.70" style="stroke-width: 0.75;"/>
<circle cx="592.13" cy="152.28" r="2.70" style="stroke-width: 0.75;"/>
<circle cx="592.13" cy="258.62" r="2.70" style="stroke-width: 0.75;"/>
<circle cx="592.13" cy="282.18" r="2.70" style="stroke-width: 0.75;"/>
<circle cx="592.13" cy="278.25" r="2.70" style="stroke-width: 0.75;"/>
<circle cx="592.13" cy="279.95" r="2.70" style="stroke-width: 0.75;"/>
<circle cx="592.13" cy="298.92" r="2.70" style="stroke-width: 0.75;"/>
<circle cx="592.13" cy="283.63" r="2.70" style="stroke-width: 0.75;"/>
<circle cx="592.13" cy="260.55" r="2.70" style="stroke-width: 0.75;"/>
<circle cx="592.13" cy="274.68" r="2.70" style="stroke-width: 0.75;"/>
<circle cx="592.13" cy="307.25" r="2.70" style="stroke-width: 0.75;"/>
<circle cx="592.13" cy="281.18" r="2.70" style="stroke-width: 0.75;"/>
<circle cx="592.13" cy="272.95" r="2.70" style="stroke-width: 0.75;"/>
<circle cx="592.13" cy="283.77" r="2.70" style="stroke-width: 0.75;"/>
<circle cx="592.13" cy="269.15" r="2.70" style="stroke-width: 0.75;"/>
<circle cx="592.13" cy="285.44" r="2.70" style="stroke-width: 0.75;"/>
<circle cx="592.13" cy="300.42" r="2.70" style="stroke-width: 0.75;"/>
<circle cx="675.95" cy="264.87" r="2.70" style="stroke-width: 0.75;"/>
<circle cx="675.95" cy="123.96" r="2.70" style="stroke-width: 0.75;"/>
<circle cx="675.95" cy="268.55" r="2.70" style="stroke-width: 0.75;"/>
<circle cx="675.95" cy="258.68" r="2.70" style="stroke-width: 0.75;"/>
<circle cx="675.95" cy="127.84" r="2.70" style="stroke-width: 0.75;"/>
<circle cx="675.95" cy="311.68" r="2.70" style="stroke-width: 0.75;"/>
<circle cx="675.95" cy="276.94" r="2.70" style="stroke-width: 0.75;"/>
<circle cx="675.95" cy="311.83" r="2.70" style="stroke-width: 0.75;"/>
<circle cx="675.95" cy="171.21" r="2.70" style="stroke-width: 0.75;"/>
<circle cx="675.95" cy="82.83" r="2.70" style="stroke-width: 0.75;"/>
<circle cx="675.95" cy="313.49" r="2.70" style="stroke-width: 0.75;"/>
<circle cx="675.95" cy="277.23" r="2.70" style="stroke-width: 0.75;"/>
<circle cx="675.95" cy="291.42" r="2.70" style="stroke-width: 0.75;"/>
<circle cx="675.95" cy="285.32" r="2.70" style="stroke-width: 0.75;"/>
<circle cx="675.95" cy="259.97" r="2.70" style="stroke-width: 0.75;"/>
<circle cx="675.95" cy="112.45" r="2.70" style="stroke-width: 0.75;"/>
<circle cx="675.95" cy="253.66" r="2.70" style="stroke-width: 0.75;"/>
<circle cx="675.95" cy="301.83" r="2.70" style="stroke-width: 0.75;"/>
<circle cx="675.95" cy="296.60" r="2.70" style="stroke-width: 0.75;"/>
<circle cx="675.95" cy="294.32" r="2.70" style="stroke-width: 0.75;"/>
<circle cx="675.95" cy="281.91" r="2.70" style="stroke-width: 0.75;"/>
<circle cx="675.95" cy="299.22" r="2.70" style="stroke-width: 0.75;"/>
<circle cx="675.95" cy="295.61" r="2.70" style="stroke-width: 0.75;"/>
<circle cx="675.95" cy="298.68" r="2.70" style="stroke-width: 0.75;"/>
<circle cx="675.95" cy="267.35" r="2.70" style="stroke-width: 0.75;"/>
<circle cx="675.95" cy="268.45" r="2.70" style="stroke-width: 0.75;"/>
<circle cx="675.95" cy="261.16" r="2.70" style="stroke-width: 0.75;"/>
<circle cx="675.95" cy="226.53" r="2.70" style="stroke-width: 0.75;"/>
<circle cx="675.95" cy="282.92" r="2.70" style="stroke-width: 0.75;"/>
<circle cx="675.95" cy="265.75" r="2.70" style="stroke-width: 0.75;"/>
<circle cx="759.77" cy="204.74" r="2.70" style="stroke-width: 0.75;"/>
<circle cx="759.77" cy="265.99" r="2.70" style="stroke-width: 0.75;"/>
<circle cx="759.77" cy="280.25" r="2.70" style="stroke-width: 0.75;"/>
<circle cx="759.77" cy="204.99" r="2.70" style="stroke-width: 0.75;"/>
<circle cx="759.77" cy="291.06" r="2.70" style="stroke-width: 0.75;"/>
<circle cx="759.77" cy="316.92" r="2.70" style="stroke-width: 0.75;"/>
<circle cx="759.77" cy="314.28" r="2.70" style="stroke-width: 0.75;"/>
<circle cx="759.77" cy="287.85" r="2.70" style="stroke-width: 0.75;"/>
<circle cx="759.77" cy="271.46" r="2.70" style="stroke-width: 0.75;"/>
<circle cx="759.77" cy="277.77" r="2.70" style="stroke-width: 0.75;"/>
<circle cx="759.77" cy="165.43" r="2.70" style="stroke-width: 0.75;"/>
<circle cx="759.77" cy="319.87" r="2.70" style="stroke-width: 0.75;"/>
<circle cx="759.77" cy="94.17" r="2.70" style="stroke-width: 0.75;"/>
<circle cx="759.77" cy="268.28" r="2.70" style="stroke-width: 0.75;"/>
<circle cx="759.77" cy="242.09" r="2.70" style="stroke-width: 0.75;"/>
<circle cx="759.77" cy="320.71" r="2.70" style="stroke-width: 0.75;"/>
<circle cx="759.77" cy="285.18" r="2.70" style="stroke-width: 0.75;"/>
<circle cx="759.77" cy="239.06" r="2.70" style="stroke-width: 0.75;"/>
<circle cx="759.77" cy="276.05" r="2.70" style="stroke-width: 0.75;"/>
<circle cx="759.77" cy="247.35" r="2.70" style="stroke-width: 0.75;"/>
<circle cx="759.77" cy="99.94" r="2.70" style="stroke-width: 0.75;"/>
<circle cx="759.77" cy="275.60" r="2.70" style="stroke-width: 0.75;"/>
<circle cx="759.77" cy="257.99" r="2.70" style="stroke-width: 0.75;"/>
<circle cx="759.77" cy="319.45" r="2.70" style="stroke-width: 0.75;"/>
<circle cx="759.77" cy="286.38" r="2.70" style="stroke-width: 0.75;"/>
<circle cx="759.77" cy="264.96" r="2.70" style="stroke-width: 0.75;"/>
<circle cx="759.77" cy="248.32" r="2.70" style="stroke-width: 0.75;"/>
<circle cx="759.77" cy="261.32" r="2.70" style="stroke-width: 0.75;"/>
<circle cx="759.77" cy="274.30" r="2.70" style="stroke-width: 0.75;"/>
<circle cx="759.77" cy="252.86" r="2.70" style="stroke-width: 0.75;"/>
<circle cx="843.59" cy="278.17" r="2.70" style="stroke-width: 0.75;"/>
<circle cx="843.59" cy="306.63" r="2.70" style="stroke-width: 0.75;"/>
<circle cx="843.59" cy="279.16" r="2.70" style="stroke-width: 0.75;"/>
<circle cx="843.59" cy="282.68" r="2.70" style="stroke-width: 0.75;"/>
<circle cx="843.59" cy="269.11" r="2.70" style="stroke-width: 0.75;"/>
<circle cx="843.59" cy="288.21" r="2.70" style="stroke-width: 0.75;"/>
<circle cx="843.59" cy="261.91" r="2.70" style="stroke-width: 0.75;"/>
<circle cx="843.59" cy="226.09" r="2.70" style="stroke-width: 0.75;"/>
<circle cx="843.59" cy="324.21" r="2.70" style="stroke-width: 0.75;"/>
<circle cx="843.59" cy="263.67" r="2.70" style="stroke-width: 0.75;"/>
<circle cx="843.59" cy="296.90" r="2.70" style="stroke-width: 0.75;"/>
<circle cx="843.59" cy="294.52" r="2.70" style="stroke-width: 0.75;"/>
<circle cx="843.59" cy="324.71" r="2.70" style="stroke-width: 0.75;"/>
<circle cx="843.59" cy="285.11" r="2.70" style="stroke-width: 0.75;"/>
<circle cx="843.59" cy="270.01" r="2.70" style="stroke-width: 0.75;"/>
<circle cx="843.59" cy="314.82" r="2.70" style="stroke-width: 0.75;"/>
<circle cx="843.59" cy="229.21" r="2.70" style="stroke-width: 0.75;"/>
<circle cx="843.59" cy="297.84" r="2.70" style="stroke-width: 0.75;"/>
<circle cx="843.59" cy="336.48" r="2.70" style="stroke-width: 0.75;"/>
<circle cx="843.59" cy="281.42" r="2.70" style="stroke-width: 0.75;"/>
<circle cx="843.59" cy="218.70" r="2.70" style="stroke-width: 0.75;"/>
<circle cx="843.59" cy="237.92" r="2.70" style="stroke-width: 0.75;"/>
<circle cx="843.59" cy="246.03" r="2.70" style="stroke-width: 0.75;"/>
<circle cx="843.59" cy="78.58" r="2.70" style="stroke-width: 0.75;"/>
<circle cx="843.59" cy="266.78" r="2.70" style="stroke-width: 0.75;"/>
<circle cx="843.59" cy="289.66" r="2.70" style="stroke-width: 0.75;"/>
<circle cx="843.59" cy="316.87" r="2.70" style="stroke-width: 0.75;"/>
<circle cx="843.59" cy="335.06" r="2.70" style="stroke-width: 0.75;"/>
<circle cx="843.59" cy="308.50" r="2.70" style="stroke-width: 0.75;"/>
<circle cx="843.59" cy="323.86" r="2.70" style="stroke-width: 0.75;"/>
</g><g clip-path="url(#c2)">
<line x1="80.83" y1="586.56" x2="751.38" y2="586.56" style="stroke-width: 0.75;"/>
<line x1="80.83" y1="586.56" x2="80.83" y2="593.76" style="stroke-width: 0.75;"/>
<line x1="248.47" y1="586.56" x2="248.47" y2="593.76" style="stroke-width: 0.75;"/>
<line x1="416.11" y1="586.56" x2="416.11" y2="593.76" style="stroke-width: 0.75;"/>
<line x1="583.75" y1="586.56" x2="583.75" y2="593.76" style="stroke-width: 0.75;"/>
<line x1="751.38" y1="586.56" x2="751.38" y2="593.76" style="stroke-width: 0.75;"/>
<g><text x="80.83" y="612.48" text-anchor="middle" style="font-family: Arial;font-size: 12.00px;" textLength="6.67px" lengthAdjust="spacingAndGlyphs">0</text></g>
<g><text x="248.47" y="612.48" text-anchor="middle" style="font-family: Arial;font-size: 12.00px;" textLength="13.35px" lengthAdjust="spacingAndGlyphs">20</text></g>
<g><text x="416.11" y="612.48" text-anchor="middle" style="font-family: Arial;font-size: 12.00px;" textLength="13.35px" lengthAdjust="spacingAndGlyphs">40</text></g>
<g><text x="583.75" y="612.48" text-anchor="middle" style="font-family: Arial;font-size: 12.00px;" textLength="13.35px" lengthAdjust="spacingAndGlyphs">60</text></g>
<g><text x="751.38" y="612.48" text-anchor="middle" style="font-family: Arial;font-size: 12.00px;" textLength="13.35px" lengthAdjust="spacingAndGlyphs">80</text></g>
<line x1="59.04" y1="557.93" x2="59.04" y2="138.70" style="stroke-width: 0.75;"/>
<line x1="59.04" y1="557.93" x2="51.84" y2="557.93" style="stroke-width: 0.75;"/>
<line x1="59.04" y1="418.19" x2="51.84" y2="418.19" style="stroke-width: 0.75;"/>
<line x1="59.04" y1="278.44" x2="51.84" y2="278.44" style="stroke-width: 0.75;"/>
<line x1="59.04" y1="138.70" x2="51.84" y2="138.70" style="stroke-width: 0.75;"/>
<g><text transform="translate(41.76,557.93) rotate(-90.00)" text-anchor="middle" style="font-family: Arial;font-size: 12.00px;" textLength="13.35px" lengthAdjust="spacingAndGlyphs">10</text></g>
<g><text transform="translate(41.76,418.19) rotate(-90.00)" text-anchor="middle" style="font-family: Arial;font-size: 12.00px;" textLength="13.35px" lengthAdjust="spacingAndGlyphs">15</text></g>
<g><text transform="translate(41.76,278.44) rotate(-90.00)" text-anchor="middle" style="font-family: Arial;font-size: 12.00px;" textLength="13.35px" lengthAdjust="spacingAndGlyphs">20</text></g>
<g><text transform="translate(41.76,138.70) rotate(-90.00)" text-anchor="middle" style="font-family: Arial;font-size: 12.00px;" textLength="13.35px" lengthAdjust="spacingAndGlyphs">25</text></g>
<polygon points="59.04,586.56 873.76,586.56 873.76,59.04 59.04,59.04" style="stroke-width: 0.75;" />
<g><text x="466.40" y="641.28" text-anchor="middle" style="font-family: Arial;font-size: 12.00px;" textLength="6.00px" lengthAdjust="spacingAndGlyphs">x</text></g>
<g><text transform="translate(12.96,322.80) rotate(-90.00)" text-anchor="middle" style="font-family: Arial;font-size: 12.00px;" textLength="6.00px" lengthAdjust="spacingAndGlyphs">y</text></g>
</g><g clip-path="url(#c3)">
<polyline points="89.21,557.93 89.21,557.93 89.21,557.93 89.21,557.93 89.21,557.93 89.21,557.93 89.21,557.93 89.21,557.93 89.21,557.93 89.21,557.93 89.21,557.93 89.21,557.93 89.21,557.93 89.21,557.93 89.21,557.93 89.21,557.93 89.21,557.93 89.21,557.93 89.21,557.93 89.21,557.93 89.21,557.93 89.21,557.93 89.21,557.93 89.21,557.93 89.21,557.93 89.21,557.93 89.21,557.93 89.21,557.93 89.21,557.93 89.21,557.93 173.03,557.93 173.03,557.93 173.03,557.93 173.03,557.93 173.03,557.93 173.03,557.93 173.03,557.93 173.03,557.93 173.03,557.93 173.03,557.93 173.03,557.93 173.03,557.93 173.03,557.93 173.03,557.93 173.03,557.93 173.03,557.93 173.03,557.93 173.03,557.93 173.03,557.93 173.03,557.93 173.03,557.93 173.03,557.93 173.03,557.93 173.03,557.93 173.03,557.93 173.03,557.93 173.03,557.93 173.03,557.93 173.03,557.93 173.03,557.93 256.85,557.49 256.85,557.49 256.85,557.49 256.85,557.49 256.85,557.49 256.85,557.49 256.85,557.49 256.85,557.49 256.85,557.49 256.85,557.49 256.85,557.49 256.85,557.49 256.85,557.49 256.85,557.49 256.85,557.49 256.85,557.49 256.85,557.49 256.85,557.49 256.85,557.49 256.85,557.49 256.85,557.49 256.85,557.49 256.85,557.49 256.85,557.49 256.85,557.49 256.85,557.49 256.85,557.49 256.85,557.49 256.85,557.49 256.85,557.49 340.67,537.67 340.67,537.67 340.67,537.67 340.67,537.67 340.67,537.67 340.67,537.67 340.67,537.67 340.67,537.67 340.67,537.67 340.67,537.67 340.67,537.67 340.67,537.67 340.67,537.67 340.67,537.67 340.67,537.67 340.67,537.67 340.67,537.67 340.67,537.67 340.67,537.67 340.67,537.67 340.67,537.67 340.67,537.67 340.67,537.67 340.67,537.67 340.67,537.67 340.67,537.67 340.67,537.67 340.67,537.67 340.67,537.67 340.67,537.67 424.49,401.02 424.49,401.02 424.49,401.02 424.49,401.02 424.49,401.02 424.49,401.02 424.49,401.02 424.49,401.02 424.49,401.02 424.49,401.02 424.49,401.02 424.49,401.02 424.49,401.02 424.49,401.02 424.49,401.02 424.49,401.02 424.49,401.02 424.49,401.02 424.49,401.02 424.49,401.02 424.49,401.02 424.49,401.02 424.49,401.02 424.49,401.02 424.49,401.02 424.49,401.02 424.49,401.02 424.49,401.02 424.49,401.02 424.49,401.02 508.31,301.07 508.31,301.07 508.31,301.07 508.31,301.07 508.31,301.07 508.31,301.07 508.31,301.07 508.31,301.07 508.31,301.07 508.31,301.07 508.31,301.07 508.31,301.07 508.31,301.07 508.31,301.07 508.31,301.07 508.31,301.07 508.31,301.07 508.31,301.07 508.31,301.07 508.31,301.07 508.31,301.07 508.31,301.07 508.31,301.07 508.31,301.07 508.31,301.07 508.31,301.07 508.31,301.07 508.31,301.07 508.31,301.07 508.31,301.07 592.13,282.49 592.13,282.49 592.13,282.49 592.13,282.49 592.13,282.49 592.13,282.49 592.13,282.49 592.13,282.49 592.13,282.49 592.13,282.49 592.13,282.49 592.13,282.49 592.13,282.49 592.13,282.49 592.13,282.49 592.13,282.49 592.13,282.49 592.13,282.49 592.13,282.49 592.13,282.49 592.13,282.49 592.13,282.49 592.13,282.49 592.13,282.49 592.13,282.49 592.13,282.49 592.13,282.49 592.13,282.49 592.13,282.49 592.13,282.49 675.95,279.34 675.95,279.34 675.95,279.34 675.95,279.34 675.95,279.34 675.95,279.34 675.95,279.34 675.95,279.34 675.95,279.34 675.95,279.34 675.95,279.34 675.95,279.34 675.95,279.34 675.95,279.34 675.95,279.34 675.95,279.34 675.95,279.34 675.95,279.34 675.95,279.34 675.95,279.34 675.95,279.34 675.95,279.34 675.95,279.34 675.95,279.34 675.95,279.34 675.95,279.34 675.95,279.34 675.95,279.34 675.95,279.34 675.95,279.34 759.77,278.69 759.77,278.69 759.77,278.69 759.77,278.69 759.77,278.69 759.77,278.69 759.77,278.69 759.77,278.69 759.77,278.69 759.77,278.69 759.77,278.69 759.77,278.69 759.77,278.69 759.77,278.69 759.77,278.69 759.77,278.69 759.77,278.69 759.77,278.69 759.77,278.69 759.77,278.69 759.77,278.69 759.77,278.69 759.77,278.69 759.77,278.69 759.77,278.69 759.77,278.69 759.77,278.69 759.77,278.69 759.77,278.69 759.77,278.69 843.59,278.52 843.59,278.52 843.59,278.52 843.59,278.52 843.59,278.52 843.59,278.52 843.59,278.52 843.59,278.52 843.59,278.52 843.59,278.52 843.59,278.52 843.59,278.52 843.59,278.52 843.59,278.52 843.59,278.52 843.59,278.52 843.59,278.52 843.59,278.52 843.59,278.52 843.59,278.52 843.59,278.52 843.59,278.52 843.59,278.52 843.59,278.52 843.59,278.52 843.59,278.52 843.59,278.52 843.59,278.52 843.59,278.52 843.59,278.52" style="stroke-width: 1.50;"/>
<polyline points="89.21,549.48 89.21,549.48 89.21,549.48 89.21,549.48 89.21,549.48 89.21,549.48 89.21,549.48 89.21,549.48 89.21,549.48 89.21,549.48 89.21,549.48 89.21,549.48 89.21,549.48 89.21,549.48 89.21,549.48 89.21,549.48 89.21,549.48 89.21,549.48 89.21,549.48 89.21,549.48 89.21,549.48 89.21,549.48 89.21,549.48 89.21,549.48 89.21,549.48 89.21,549.48 89.21,549.48 89.21,549.48 89.21,549.48 89.21,549.48 173.03,549.47 173.03,549.47 173.03,549.47 173.03,549.47 173.03,549.47 173.03,549.47 173.03,549.47 173.03,549.47 173.03,549.47 173.03,549.47 173.03,549.47 173.03,549.47 173.03,549.47 173.03,549.47 173.03,549.47 173.03,549.47 173.03,549.47 173.03,549.47 173.03,549.47 173.03,549.47 173.03,549.47 173.03,549.47 173.03,549.47 173.03,549.47 173.03,549.47 173.03,549.47 173.03,549.47 173.03,549.47 173.03,549.47 173.03,549.47 256.85,548.28 256.85,548.28 256.85,548.28 256.85,548.28 256.85,548.28 256.85,548.28 256.85,548.28 256.85,548.28 256.85,548.28 256.85,548.28 256.85,548.28 256.85,548.28 256.85,548.28 256.85,548.28 256.85,548.28 256.85,548.28 256.85,548.28 256.85,548.28 256.85,548.28 256.85,548.28 256.85,548.28 256.85,548.28 256.85,548.28 256.85,548.28 256.85,548.28 256.85,548.28 256.85,548.28 256.85,548.28 256.85,548.28 256.85,548.28 340.67,519.17 340.67,519.17 340.67,519.17 340.67,519.17 340.67,519.17 340.67,519.17 340.67,519.17 340.67,519.17 340.67,519.17 340.67,519.17 340.67,519.17 340.67,519.17 340.67,519.17 340.67,519.17 340.67,519.17 340.67,519.17 340.67,519.17 340.67,519.17 340.67,519.17 340.67,519.17 340.67,519.17 340.67,519.17 340.67,519.17 340.67,519.17 340.67,519.17 340.67,519.17 340.67,519.17 340.67,519.17 340.67,519.17 340.67,519.17 424.49,387.55 424.49,387.55 424.49,387.55 424.49,387.55 424.49,387.55 424.49,387.55 424.49,387.55 424.49,387.55 424.49,387.55 424.49,387.55 424.49,387.55 424.49,387.55 424.49,387.55 424.49,387.55 424.49,387.55 424.49,387.55 424.49,387.55 424.49,387.55 424.49,387.55 424.49,387.55 424.49,387.55 424.49,387.55 424.49,387.55 424.49,387.55 424.49,387.55 424.49,387.55 424.49,387.55 424.49,387.55 424.49,387.55 424.49,387.55 508.31,293.38 508.31,293.38 508.31,293.38 508.31,293.38 508.31,293.38 508.31,293.38 508.31,293.38 508.31,293.38 508.31,293.38 508.31,293.38 508.31,293.38 508.31,293.38 508.31,293.38 508.31,293.38 508.31,293.38 508.31,293.38 508.31,293.38 508.31,293.38 508.31,293.38 508.31,293.38 508.31,293.38 508.31,293.38 508.31,293.38 508.31,293.38 508.31,293.38 508.31,293.38 508.31,293.38 508.31,293.38 508.31,293.38 508.31,293.38 592.13,270.21 592.13,270.21 592.13,270.21 592.13,270.21 592.13,270.21 592.13,270.21 592.13,270.21 592.13,270.21 592.13,270.21 592.13,270.21 592.13,270.21 592.13,270.21 592.13,270.21 592.13,270.21 592.13,270.21 592.13,270.21 592.13,270.21 592.13,270.21 592.13,270.21 592.13,270.21 592.13,270.21 592.13,270.21 592.13,270.21 592.13,270.21 592.13,270.21 592.13,270.21 592.13,270.21 592.13,270.21 592.13,270.21 592.13,270.21 675.95,265.06 675.95,265.06 675.95,265.06 675.95,265.06 675.95,265.06 675.95,265.06 675.95,265.06 675.95,265.06 675.95,265.06 675.95,265.06 675.95,265.06 675.95,265.06 675.95,265.06 675.95,265.06 675.95,265.06 675.95,265.06 675.95,265.06 675.95,265.06 675.95,265.06 675.95,265.06 675.95,265.06 675.95,265.06 675.95,265.06 675.95,265.06 675.95,265.06 675.95,265.06 675.95,265.06 675.95,265.06 675.95,265.06 675.95,265.06 759.77,263.73 759.77,263.73 759.77,263.73 759.77,263.73 759.77,263.73 759.77,263.73 759.77,263.73 759.77,263.73 759.77,263.73 759.77,263.73 759.77,263.73 759.77,263.73 759.77,263.73 759.77,263.73 759.77,263.73 759.77,263.73 759.77,263.73 759.77,263.73 759.77,263.73 759.77,263.73 759.77,263.73 759.77,263.73 759.77,263.73 759.77,263.73 759.77,263.73 759.77,263.73 759.77,263.73 759.77,263.73 759.77,263.73 759.77,263.73 843.59,263.33 843.59,263.33 843.59,263.33 843.59,263.33 843.59,263.33 843.59,263.33 843.59,263.33 843.59,263.33 843.59,263.33 843.59,263.33 843.59,263.33 843.59,263.33 843.59,263.33 843.59,263.33 843.59,263.33 843.59,263.33 843.59,263.33 843.59,263.33 843.59,263.33 843.59,263.33 843.59,263.33 843.59,263.33 843.59,263.33 843.59,263.33 843.59,263.33 843.59,263.33 843.59,263.33 843.59,263.33 843.59,263.33 843.59,263.33" style="stroke-width: 0.75;stroke: #DF536B;"/>
<polyline points="89.21,557.92 89.21,557.92 89.21,557.92 89.21,557.92 89.21,557.92 89.21,557.92 89.21,557.92 89.21,557.92 89.21,557.92 89.21,557.92 89.21,557.92 89.21,557.92 89.21,557.92 89.21,557.92 89.21,557.92 89.21,557.92 89.21,557.92 89.21,557.92 89.21,557.92 89.21,557.92 89.21,557.92 89.21,557.92 89.21,557.92 89.21,557.92 89.21,557.92 89.21,557.92 89.21,557.92 89.21,557.92 89.21,557.92 89.21,557.92 173.03,557.92 173.03,557.92 173.03,557.92 173.03,557.92 173.03,557.92 173.03,557.92 173.03,557.92 173.03,557.92 173.03,557.92 173.03,557.92 173.03,557.92 173.03,557.92 173.03,557.92 173.03,557.92 173.03,557.92 173.03,557.92 173.03,557.92 173.03,557.92 173.03,557.92 173.03,557.92 173.03,557.92 173.03,557.92 173.03,557.92 173.03,557.92 173.03,557.92 173.03,557.92 173.03,557.92 173.03,557.92 173.03,557.92 173.03,557.92 256.85,557.47 256.85,557.47 256.85,557.47 256.85,557.47 256.85,557.47 256.85,557.47 256.85,557.47 256.85,557.47 256.85,557.47 256.85,557.47 256.85,557.47 256.85,557.47 256.85,557.47 256.85,557.47 256.85,557.47 256.85,557.47 256.85,557.47 256.85,557.47 256.85,557.47 256.85,557.47 256.85,557.47 256.85,557.47 256.85,557.47 256.85,557.47 256.85,557.47 256.85,557.47 256.85,557.47 256.85,557.47 256.85,557.47 256.85,557.47 340.67,537.67 340.67,537.67 340.67,537.67 340.67,537.67 340.67,537.67 340.67,537.67 340.67,537.67 340.67,537.67 340.67,537.67 340.67,537.67 340.67,537.67 340.67,537.67 340.67,537.67 340.67,537.67 340.67,537.67 340.67,537.67 340.67,537.67 340.67,537.67 340.67,537.67 340.67,537.67 340.67,537.67 340.67,537.67 340.67,537.67 340.67,537.67 340.67,537.67 340.67,537.67 340.67,537.67 340.67,537.67 340.67,537.67 340.67,537.67 424.49,400.78 424.49,400.78 424.49,400.78 424.49,400.78 424.49,400.78 424.49,400.78 424.49,400.78 424.49,400.78 424.49,400.78 424.49,400.78 424.49,400.78 424.49,400.78 424.49,400.78 424.49,400.78 424.49,400.78 424.49,400.78 424.49,400.78 424.49,400.78 424.49,400.78 424.49,400.78 424.49,400.78 424.49,400.78 424.49,400.78 424.49,400.78 424.49,400.78 424.49,400.78 424.49,400.78 424.49,400.78 424.49,400.78 424.49,400.78 508.31,300.45 508.31,300.45 508.31,300.45 508.31,300.45 508.31,300.45 508.31,300.45 508.31,300.45 508.31,300.45 508.31,300.45 508.31,300.45 508.31,300.45 508.31,300.45 508.31,300.45 508.31,300.45 508.31,300.45 508.31,300.45 508.31,300.45 508.31,300.45 508.31,300.45 508.31,300.45 508.31,300.45 508.31,300.45 508.31,300.45 508.31,300.45 508.31,300.45 508.31,300.45 508.31,300.45 508.31,300.45 508.31,300.45 508.31,300.45 592.13,281.80 592.13,281.80 592.13,281.80 592.13,281.80 592.13,281.80 592.13,281.80 592.13,281.80 592.13,281.80 592.13,281.80 592.13,281.80 592.13,281.80 592.13,281.80 592.13,281.80 592.13,281.80 592.13,281.80 592.13,281.80 592.13,281.80 592.13,281.80 592.13,281.80 592.13,281.80 592.13,281.80 592.13,281.80 592.13,281.80 592.13,281.80 592.13,281.80 592.13,281.80 592.13,281.80 592.13,281.80 592.13,281.80 592.13,281.80 675.95,278.64 675.95,278.64 675.95,278.64 675.95,278.64 675.95,278.64 675.95,278.64 675.95,278.64 675.95,278.64 675.95,278.64 675.95,278.64 675.95,278.64 675.95,278.64 675.95,278.64 675.95,278.64 675.95,278.64 675.95,278.64 675.95,278.64 675.95,278.64 675.95,278.64 675.95,278.64 675.95,278.64 675.95,278.64 675.95,278.64 675.95,278.64 675.95,278.64 675.95,278.64 675.95,278.64 675.95,278.64 675.95,278.64 675.95,278.64 759.77,277.98 759.77,277.98 759.77,277.98 759.77,277.98 759.77,277.98 759.77,277.98 759.77,277.98 759.77,277.98 759.77,277.98 759.77,277.98 759.77,277.98 759.77,277.98 759.77,277.98 759.77,277.98 759.77,277.98 759.77,277.98 759.77,277.98 759.77,277.98 759.77,277.98 759.77,277.98 759.77,277.98 759.77,277.98 759.77,277.98 759.77,277.98 759.77,277.98 759.77,277.98 759.77,277.98 759.77,277.98 759.77,277.98 759.77,277.98 843.59,277.82 843.59,277.82 843.59,277.82 843.59,277.82 843.59,277.82 843.59,277.82 843.59,277.82 843.59,277.82 843.59,277.82 843.59,277.82 843.59,277.82 843.59,277.82 843.59,277.82 843.59,277.82 843.59,277.82 843.59,277.82 843.59,277.82 843.59,277.82 843.59,277.82 843.59,277.82 843.59,277.82 843.59,277.82 843.59,277.82 843.59,277.82 843.59,277.82 843.59,277.82 843.59,277.82 843.59,277.82 843.59,277.82 843.59,277.82" style="stroke-width: 0.75;stroke: #61D04F;"/>
<rect x="59.04" y="59.04" width="99.86" height="108.32" style="stroke-width: 0.75;fill: #FFFFFF;"/>
<line x1="74.76" y1="86.12" x2="106.20" y2="86.12" style="stroke-width: 0.75;"/>
<line x1="74.76" y1="113.20" x2="106.20" y2="113.20" style="stroke-width: 0.75;stroke: #DF536B;"/>
<line x1="74.76" y1="140.28" x2="106.20" y2="140.28" style="stroke-width: 0.75;stroke: #61D04F;"/>
<g><text x="121.92" y="90.42" style="font-family: Arial;font-size: 12.00px;" textLength="3.33px" lengthAdjust="spacingAndGlyphs">t</text></g>
<g><text x="121.92" y="117.50" style="font-family: Arial;font-size: 12.00px;" textLength="18.67px" lengthAdjust="spacingAndGlyphs">t_ls</text></g>
<g><text x="121.92" y="144.58" style="font-family: Arial;font-size: 12.00px;" textLength="20.00px" lengthAdjust="spacingAndGlyphs">t_m</text></g>
</g>
</svg>